# xmcd
#
# Track frame offsets: 
#        150
#        14232
#        27203
#        42868
#        59734
#        78046
#        93202
#        109208
#        125471
#        140594
#        158130
#        171086
#        187515
#
# Disc length: 2707 seconds
#
# Revision: 0
# Processed by: cddbd v1.5.2PL0 Copyright (c) Steve Scherf et al.
# Submitted via: ExactAudioCopy v1.0b1
#
DISCID=a30a910d
DTITLE=ZZ Ward - Til The Casket Drops
DYEAR=2012
DGENRE=Electric Blues, Rhythm and Blues
TTITLE0=Til The Casket Drops
TTITLE1=Put The Gun Down
TTITLE2=Blue Eyes Blind
TTITLE3=Home
TTITLE4=Cryin Wolf
TTITLE5=Save My Life
TTITLE6=Last Love Song
TTITLE7=Lil Darlin 
TTITLE8=Move Like U Stole It
TTITLE9=Criminal
TTITLE10=If I Could Be Her
TTITLE11=Charlie Ain't Home
TTITLE12=365 Days
EXTD=
EXTT0=
EXTT1=
EXTT2=
EXTT3=
EXTT4=
EXTT5=
EXTT6=
EXTT7=
EXTT8=
EXTT9=
EXTT10=
EXTT11=
EXTT12=
PLAYORDER=
